<svg width="68" height="67" viewBox="0 0 68 67" fill="none" xmlns="http://www.w3.org/2000/svg">
<path d="M18.5071 35.4905V22.6763H13.7018C12.4274 22.6763 11.2051 23.1825 10.3039 24.0837C9.40276 24.9849 8.89648 26.2071 8.89648 27.4816V56.3136C8.89887 56.611 8.98405 56.902 9.14248 57.1538C9.30091 57.4056 9.52633 57.6083 9.79348 57.7391C10.0509 57.8562 10.3346 57.903 10.616 57.8749C10.8973 57.8468 11.1662 57.7447 11.3953 57.579L19.6444 51.5082H41.1723C41.7794 51.5262 42.3837 51.4193 42.9478 51.1942C43.5119 50.9691 44.0237 50.6306 44.4517 50.1996C44.8797 49.7687 45.2146 49.2544 45.4357 48.6888C45.6569 48.1231 45.7595 47.5181 45.7373 46.9111V45.1011H28.1178C25.5689 45.1011 23.1244 44.0886 21.322 42.2862C19.5197 40.4839 18.5071 38.0394 18.5071 35.4905Z" fill="white"/>
<path d="M55.348 11.4644H28.1178C26.8434 11.4644 25.6211 11.9706 24.7199 12.8718C23.8188 13.773 23.3125 14.9952 23.3125 16.2697V35.491C23.3125 36.7654 23.8188 37.9877 24.7199 38.8889C25.6211 39.7901 26.8434 40.2963 28.1178 40.2963H49.8219L57.4784 46.2389C57.706 46.4072 57.9741 46.5122 58.2555 46.5431C58.5369 46.5741 58.8214 46.5299 59.0802 46.4151C59.3527 46.2853 59.5831 46.0811 59.7446 45.826C59.9062 45.5709 59.9923 45.2754 59.9932 44.9735V16.2697C59.9939 15.0225 59.5096 13.8239 58.6428 12.9272C57.776 12.0305 56.5945 11.5059 55.348 11.4644Z" fill="white"/>
</svg>
