<svg width="71" height="70" viewBox="0 0 71 70" fill="none" xmlns="http://www.w3.org/2000/svg">
<path d="M60.2448 20.6707C61.0763 20.6707 61.75 20.0087 61.75 19.1977V14.8356C61.75 14.0224 61.0763 13.3597 60.2448 13.3597H56.8642V12.1767C56.8642 11.5492 56.6153 10.9473 56.1721 10.5035C55.7289 10.0597 55.1278 9.81025 54.5009 9.81006H15.1133C14.8029 9.81006 14.4955 9.87128 14.2087 9.99022C13.9219 10.1092 13.6614 10.2835 13.4419 10.5033C13.2225 10.7231 13.0484 10.984 12.9297 11.2711C12.811 11.5582 12.7499 11.8659 12.75 12.1767V56.4441C12.7508 57.0714 13 57.6727 13.443 58.1162C13.8861 58.5598 14.4867 58.8093 15.1133 58.8101H54.5002C55.1268 58.8093 55.7274 58.5598 56.1704 58.1162C56.6135 57.6727 56.8627 57.0714 56.8635 56.4441V55.2118H60.244C61.0755 55.2118 61.7493 54.552 61.7493 53.7388V49.3759C61.7493 48.5627 61.0755 47.9 60.244 47.9H56.8635V43.6944H60.244C61.0755 43.6944 61.7493 43.0346 61.7493 42.2251V37.8622C61.7493 37.049 61.0755 36.3863 60.244 36.3863H56.8635V32.1807H60.244C61.0755 32.1807 61.7493 31.5187 61.7493 30.7077V26.3449C61.7493 25.5346 61.0755 24.8719 60.244 24.8719H56.8635V20.6692H60.2448V20.6707ZM46.3835 44.4065C46.3835 45.2566 45.7909 45.9474 45.0604 45.9474H24.5339C23.8027 45.9474 23.2108 45.2574 23.2108 44.4065V38.0571C23.2108 37.4254 23.5403 36.8579 24.0415 36.6247L32.0764 32.878C30.1723 31.729 28.8691 29.4177 28.8691 26.75C28.8691 22.9362 31.522 19.8456 34.7964 19.8456C38.0715 19.8456 40.7245 22.9362 40.7245 26.75C40.7245 29.3786 39.4655 31.6611 37.6094 32.8293L45.5624 36.6284C46.0592 36.8682 46.3843 37.4291 46.3843 38.0578L46.3835 44.4065Z" fill="white"/>
</svg>
