<svg width="50" height="50" viewBox="0 0 50 50" fill="none" xmlns="http://www.w3.org/2000/svg">
<g clip-path="url(#clip0_0_100)">
<path d="M48.9398 7.9049L25.8631 -0.0912125C25.4683 -0.228019 25.0416 -0.228019 24.6468 -0.0912125L1.57002 7.9049C1.18711 8.03765 0.854056 8.29214 0.618066 8.63255C0.382076 8.97296 0.255096 9.38194 0.255127 9.80153V29.7918C0.255127 30.322 0.457739 30.8305 0.818382 31.2054C1.17902 31.5803 1.66816 31.7909 2.17819 31.7909C2.68822 31.7909 3.17737 31.5803 3.53798 31.2054C3.8986 30.8305 4.10125 30.322 4.10125 29.7918V12.5752L12.1757 15.3713C10.0304 18.9741 9.34819 23.3146 10.2789 27.4398C11.2096 31.5649 13.6771 35.1376 17.1396 37.3732C12.8127 39.1373 9.07237 42.3284 6.33676 46.6912C6.19451 46.911 6.09574 47.1581 6.04605 47.4179C5.99645 47.6778 5.99707 47.9452 6.04768 48.2049C6.09839 48.4645 6.19829 48.711 6.34145 48.9302C6.48462 49.1494 6.66829 49.3367 6.88176 49.4815C7.09523 49.6262 7.33421 49.7254 7.58492 49.7733C7.83553 49.8211 8.09288 49.8167 8.34186 49.7603C8.59084 49.7039 8.82666 49.5966 9.03543 49.4446C9.24411 49.2927 9.42176 49.0991 9.55788 48.8752C13.1805 43.098 18.9016 39.787 25.2549 39.787C31.6082 39.787 37.3293 43.098 40.9519 48.8752C41.2339 49.3109 41.6696 49.6138 42.1648 49.7183C42.66 49.8228 43.1748 49.7205 43.598 49.4336C44.0213 49.1466 44.3188 48.6982 44.4264 48.185C44.534 47.6717 44.443 47.1352 44.173 46.6912C41.4375 42.3284 37.6827 39.1373 33.3702 37.3732C36.8294 35.1377 39.2945 31.5673 40.2251 27.4452C41.1556 23.3231 40.4756 18.9855 38.3341 15.3838L48.9398 11.7106C49.3228 11.578 49.6559 11.3235 49.8921 10.9831C50.1281 10.6427 50.2551 10.2337 50.2551 9.81398C50.2551 9.39439 50.1281 8.98541 49.8921 8.645C49.6559 8.30459 49.3228 8.05 48.9398 7.91745V7.9049ZM36.7933 23.7948C36.7938 25.691 36.3618 27.5603 35.5328 29.2494C34.7037 30.9385 33.5011 32.3991 32.0239 33.5115C30.5467 34.624 28.8367 35.3564 27.0343 35.6489C25.2321 35.9413 23.3887 35.7854 21.6555 35.1939C19.9224 34.6023 18.3489 33.592 17.0641 32.246C15.7793 30.8999 14.8198 29.2563 14.2644 27.4502C13.709 25.644 13.5735 23.7266 13.8689 21.8554C14.1644 19.9843 14.8824 18.2126 15.9641 16.6857L24.6468 19.6843C25.0416 19.821 25.4683 19.821 25.8631 19.6843L34.5457 16.6857C36.0068 18.7447 36.7944 21.2362 36.7933 23.7948Z" fill="white"/>
</g>
<defs>
<clipPath id="clip0_0_100">
<rect width="50" height="50" fill="white"/>
</clipPath>
</defs>
</svg>
