<svg width="53" height="47" viewBox="0 0 53 47" fill="none" xmlns="http://www.w3.org/2000/svg">
<path fill-rule="evenodd" clip-rule="evenodd" d="M32.9299 1.92995C33.8988 0.961017 35.213 0.416672 36.5833 0.416672H46.9166C48.2869 0.416672 49.6011 0.961015 50.57 1.92995C51.539 2.8989 52.0833 4.21306 52.0833 5.58334V41.75C52.0833 43.1203 51.539 44.4345 50.57 45.4034C49.6011 46.3723 48.2869 46.9167 46.9166 46.9167H5.58329C4.21301 46.9167 2.89885 46.3723 1.92991 45.4034C0.960968 44.4345 0.416626 43.1203 0.416626 41.75V26.25C0.416626 24.8797 0.96097 23.5656 1.92991 22.5966C2.89884 21.6277 4.21301 21.0833 5.58329 21.0833H15.9166V15.9167C15.9166 14.5464 16.461 13.2322 17.4299 12.2633C18.3988 11.2944 19.713 10.75 21.0833 10.75H31.4166V5.58334C31.4166 4.21305 31.961 2.89889 32.9299 1.92995ZM36.5833 41.75H46.9166L46.9166 5.58334H36.5833V41.75ZM31.4166 15.9167H21.0833L21.0833 41.75H31.4166V15.9167ZM15.9166 26.25H5.58329V41.75H15.9166V26.25Z" fill="white"/>
</svg>
