<svg width="51" height="47" viewBox="0 0 51 47" fill="none" xmlns="http://www.w3.org/2000/svg">
<g clip-path="url(#clip0_0_40)">
<path d="M9.5071 24.4905V11.6763H4.70181C3.42741 11.6763 2.2051 12.1825 1.3039 13.0837C0.402765 13.9849 -0.103516 15.2071 -0.103516 16.4816V45.3136C-0.101126 45.611 -0.0159453 45.902 0.142485 46.1538C0.300915 46.4056 0.526335 46.6083 0.793485 46.7391C1.0509 46.8562 1.3346 46.903 1.616 46.8749C1.8973 46.8468 2.1662 46.7447 2.3953 46.579L10.6444 40.5082H32.1723C32.7794 40.5262 33.3837 40.4193 33.9478 40.1942C34.5119 39.9691 35.0237 39.6306 35.4517 39.1996C35.8797 38.7687 36.2146 38.2544 36.4357 37.6888C36.6569 37.1231 36.7595 36.5181 36.7373 35.9111V34.1011H19.1178C16.5689 34.1011 14.1244 33.0886 12.322 31.2862C10.5197 29.4839 9.5071 27.0394 9.5071 24.4905Z" fill="white"/>
<path d="M46.348 0.464386H19.1178C17.8434 0.464386 16.6211 0.970586 15.7199 1.87179C14.8188 2.77299 14.3125 3.99518 14.3125 5.26968V24.491C14.3125 25.7654 14.8188 26.9877 15.7199 27.8889C16.6211 28.7901 17.8434 29.2963 19.1178 29.2963H40.8219L48.4784 35.2389C48.706 35.4072 48.9741 35.5122 49.2555 35.5431C49.5369 35.5741 49.8214 35.5299 50.0802 35.4151C50.3527 35.2853 50.5831 35.0811 50.7446 34.826C50.9062 34.5709 50.9923 34.2754 50.9932 33.9735V5.26968C50.9939 4.02248 50.5096 2.82389 49.6428 1.92719C48.776 1.03049 47.5945 0.505886 46.348 0.464386Z" fill="white"/>
</g>
<defs>
<clipPath id="clip0_0_40">
<rect width="51" height="47" fill="white"/>
</clipPath>
</defs>
</svg>
