<svg width="19" height="19" viewBox="0 0 19 19" fill="none" xmlns="http://www.w3.org/2000/svg">
<g clip-path="url(#clip0_1_123)">
<path d="M15.3756 0.73229C14.9427 0.967316 14.6508 1.09596 14.1263 1.27904C13.06 1.6526 11.6499 1.94453 10.1803 2.09049C9.08189 2.19935 8.26548 2.24883 7.49608 2.2513C6.92707 2.25377 6.68215 2.27851 6.59556 2.34036C6.54608 2.375 5.79647 3.84948 3.63176 8.17643C0.75702 13.9259 0.737229 13.9655 0.747124 14.0892C0.752072 14.1609 0.779286 14.2451 0.806499 14.2822C0.831239 14.3193 0.98215 14.4479 1.13801 14.5667C2.15481 15.3435 3.59712 16.1475 4.99738 16.7165C5.66288 16.9887 6.17746 17.1693 7.0384 17.4315C7.68905 17.6319 9.00767 17.9139 9.89582 18.0451C10.6182 18.1539 11.9838 18.2553 12.6889 18.2578C12.9982 18.2578 13.0279 18.2529 13.1268 18.196C13.2233 18.1391 13.248 18.0995 13.4163 17.7556C13.5177 17.5503 14.0199 16.5236 14.5345 15.4746C15.0491 14.4257 15.5661 13.3693 15.6849 13.1243C15.8036 12.8794 16.0461 12.3846 16.2217 12.0234C16.6893 11.0734 17.1519 10.1284 17.9337 8.52773C18.285 7.80781 18.3048 7.73854 18.2157 7.55299C18.1415 7.39466 17.9411 7.31549 17.7556 7.37239C17.5651 7.42682 17.622 7.32786 16.8229 8.9681C16.6695 9.27982 16.4246 9.78203 16.2786 10.0814C16.1327 10.3807 15.4919 11.6895 14.8561 12.9883C14.2203 14.2871 13.5499 15.6577 13.3668 16.0312C13.1862 16.4048 12.9561 16.8749 12.8572 17.0753L12.679 17.4389L12.3896 17.4414C11.6548 17.4439 10.0764 17.2781 9.20311 17.1074C8.42629 16.9565 7.13241 16.6349 6.87512 16.5285C6.82317 16.5038 6.82564 16.5038 6.90233 16.5137C7.98098 16.6621 9.52473 16.6374 10.7617 16.4493C11.3654 16.3578 11.3703 16.3553 11.5781 15.9199C11.6573 15.7566 11.8824 15.294 12.0779 14.8932C12.2758 14.4924 12.538 13.9581 12.6592 13.7057C12.7829 13.4534 13.0155 12.9809 13.1738 12.6543C13.3346 12.3277 13.5795 11.8255 13.7181 11.541C13.8566 11.254 14.5048 9.93542 15.153 8.60937C15.8036 7.28333 16.4394 5.98203 16.5681 5.71979C16.6943 5.45508 16.9689 4.89844 17.1742 4.48281C17.4909 3.83958 17.5502 3.70104 17.5601 3.58476C17.5725 3.42396 17.528 3.30521 17.4216 3.22851C17.3697 3.18893 17.3152 3.17904 17.1767 3.17904C17.0035 3.17904 16.9936 3.18151 16.912 3.26562C16.8328 3.34726 16.6299 3.75299 14.8932 7.31055C14.5172 8.07995 14.1164 8.89883 13.7676 9.61133C13.2851 10.5984 12.8893 11.4025 12.684 11.8255C12.5751 12.0507 12.2857 12.6444 12.0383 13.1491C11.7909 13.6513 11.4173 14.4158 11.207 14.8462L10.8236 15.6305L10.5267 15.6701C9.85871 15.7591 9.32434 15.7937 8.52278 15.7913C7.36744 15.7913 6.58319 15.7072 5.47486 15.4622C5.14335 15.388 4.09934 15.0887 4.11666 15.0738C4.1216 15.0689 4.25272 15.0788 4.40611 15.0961C4.79205 15.1382 6.52629 15.1406 6.87759 15.0961C7.76327 14.9872 8.4535 14.8165 9.14126 14.5345C9.53462 14.3737 9.47525 14.4529 9.97499 13.4361C10.2199 12.9388 10.5366 12.2956 10.6751 12.0111C11.0883 11.165 11.8131 9.68307 12.303 8.68359C12.4663 8.34961 12.7137 7.84245 12.8522 7.55794C12.9907 7.27096 13.6266 5.97461 14.2624 4.67578C14.8982 3.37695 15.5414 2.06328 15.6923 1.75651C15.9842 1.15534 16.0139 1.0539 15.9447 0.905467C15.8407 0.685285 15.5958 0.611066 15.3756 0.73229Z" fill="white"/>
</g>
<defs>
<clipPath id="clip0_1_123">
<rect width="19" height="19" fill="white"/>
</clipPath>
</defs>
</svg>
